<?xml version="1.0" encoding="UTF-8" standalone="no"?>
<!DOCTYPE svg PUBLIC "-//W3C//DTD SVG 1.1//EN" "http://www.w3.org/Graphics/SVG/1.1/DTD/svg11.dtd">
<svg width="100%" height="100%" viewBox="0 0 469 466" version="1.1" xmlns="http://www.w3.org/2000/svg" xmlns:xlink="http://www.w3.org/1999/xlink" xml:space="preserve" xmlns:serif="http://www.serif.com/" style="fill-rule:evenodd;clip-rule:evenodd;stroke-linejoin:round;stroke-miterlimit:2;">
    <g transform="matrix(1,0,0,1,-115.936,-47.302)">
        <g>
            <path d="M511.33,475.78L188.67,475.78C173.1,475.78 160.354,463.436 159.709,448.022L145.76,358.749L144.92,358.749C128.94,358.749 115.936,345.87 115.936,330.038L115.936,321.288C115.936,305.155 128.94,292.03 144.92,292.03L555.08,292.03C571.06,292.03 584.064,305.155 584.064,321.288L584.064,330.038C584.064,345.87 571.06,358.749 555.08,358.749L553.303,358.749L540.291,447.94C539.689,463.393 526.928,475.78 511.33,475.78L511.33,475.78ZM144.92,319.37C144.092,319.37 143.279,320.319 143.279,321.284L143.279,330.034C143.279,331.112 144.311,331.401 144.92,331.401L157.459,331.401C164.193,331.401 169.928,336.308 170.967,342.96L186.865,444.68C186.974,445.38 187.029,446.087 187.029,446.794C187.029,447.7 187.763,448.434 188.67,448.434L511.33,448.434C512.236,448.434 512.97,447.7 512.97,446.794C512.97,446.133 513.017,445.473 513.115,444.821L527.951,343.101C528.931,336.382 534.689,331.402 541.478,331.402L555.08,331.402C555.689,331.402 556.72,331.113 556.72,330.035L556.72,321.285C556.72,320.32 555.908,319.371 555.08,319.371L144.92,319.37Z" style="fill-rule:nonzero;"/>
            <path d="M177.73,313.36C170.179,313.36 164.058,307.239 164.058,299.688L164.058,117.868C164.058,78.958 195.956,47.302 235.171,47.302C273.929,47.302 305.464,78.896 305.464,117.732C305.464,125.283 299.343,131.404 291.792,131.404C284.241,131.404 278.12,125.283 278.12,117.732C278.12,93.974 258.854,74.646 235.171,74.646C211.034,74.646 191.401,94.037 191.401,117.869L191.401,299.689C191.401,307.24 185.28,313.361 177.729,313.361L177.73,313.36Z" style="fill-rule:nonzero;"/>
            <path d="M263.63,182.88C261.236,182.88 258.861,182.251 256.751,181.024C253.618,179.2 251.337,176.208 250.411,172.7C246.681,158.575 248.673,143.845 256.025,131.22C263.372,118.595 275.197,109.587 289.322,105.857C293.904,104.65 298.611,104.033 303.314,104.033C328.095,104.033 349.826,120.783 356.162,144.763C358.091,152.064 353.736,159.544 346.435,161.474L267.123,182.423C265.971,182.732 264.799,182.88 263.631,182.88L263.63,182.88ZM303.314,131.38C300.966,131.38 298.607,131.689 296.302,132.298C289.24,134.161 283.329,138.665 279.654,144.978C278.435,147.076 277.51,149.287 276.885,151.568L322.694,139.47C317.686,134.423 310.776,131.38 303.315,131.38L303.314,131.38Z" style="fill-rule:nonzero;"/>
            <path d="M212.18,512.7C209.575,512.7 206.942,511.958 204.61,510.403C198.329,506.216 196.629,497.727 200.817,491.442L224.879,455.348C229.066,449.067 237.559,447.368 243.84,451.555C250.121,455.743 251.82,464.231 247.633,470.516L223.571,506.61C220.934,510.563 216.598,512.7 212.18,512.7L212.18,512.7Z" style="fill-rule:nonzero;"/>
            <path d="M487.82,512.7C483.402,512.7 479.066,510.563 476.433,506.61L452.371,470.516C448.184,464.235 449.879,455.746 456.164,451.555C462.449,447.368 470.937,449.067 475.125,455.348L499.187,491.442C503.375,497.723 501.679,506.212 495.394,510.403C493.062,511.958 490.425,512.7 487.82,512.7L487.82,512.7Z" style="fill-rule:nonzero;"/>
        </g>
    </g>
</svg>
