<?xml version="1.0" encoding="UTF-8" standalone="no"?>
<!DOCTYPE svg PUBLIC "-//W3C//DTD SVG 1.1//EN" "http://www.w3.org/Graphics/SVG/1.1/DTD/svg11.dtd">
<svg width="100%" height="100%" viewBox="0 0 259 513" version="1.1" xmlns="http://www.w3.org/2000/svg" xmlns:xlink="http://www.w3.org/1999/xlink" xml:space="preserve" xmlns:serif="http://www.serif.com/" style="fill-rule:evenodd;clip-rule:evenodd;stroke-linejoin:round;stroke-miterlimit:2;">
    <g transform="matrix(1,0,0,1,-220.388,-24.062)">
        <g>
            <path d="M450.08,505.31L249.92,505.31C233.94,505.31 220.936,492.306 220.936,476.326L220.936,53.046C220.936,37.066 233.94,24.062 249.92,24.062L450.08,24.062C466.06,24.062 479.064,37.066 479.064,53.046L479.064,476.326C479.064,492.306 466.06,505.31 450.08,505.31ZM249.92,51.4C249.014,51.4 248.279,52.134 248.279,53.041L248.279,476.321C248.279,477.227 249.014,477.961 249.92,477.961L450.08,477.961C450.986,477.961 451.721,477.227 451.721,476.321L451.721,53.041C451.721,52.134 450.986,51.4 450.08,51.4L249.92,51.4Z" style="fill-rule:nonzero;"/>
            <path d="M464.84,201.25L234.06,201.25C226.509,201.25 220.388,195.129 220.388,187.578C220.388,180.027 226.509,173.906 234.06,173.906L464.84,173.906C472.391,173.906 478.512,180.027 478.512,187.578C478.512,195.129 472.391,201.25 464.84,201.25Z" style="fill-rule:nonzero;"/>
            <path d="M282.73,260.86C275.179,260.86 269.058,254.739 269.058,247.188L269.058,127.968C269.058,120.417 275.179,114.296 282.73,114.296C290.281,114.296 296.402,120.417 296.402,127.968L296.402,247.188C296.402,254.739 290.281,260.86 282.73,260.86Z" style="fill-rule:nonzero;"/>
            <path d="M278.36,536.48C270.809,536.48 264.688,530.359 264.688,522.808L264.688,502.027C264.688,494.476 270.809,488.355 278.36,488.355C285.911,488.355 292.032,494.476 292.032,502.027L292.032,522.808C292.032,530.359 285.911,536.48 278.36,536.48Z" style="fill-rule:nonzero;"/>
            <path d="M421.64,536.48C414.089,536.48 407.968,530.359 407.968,522.808L407.968,502.027C407.968,494.476 414.089,488.355 421.64,488.355C429.191,488.355 435.312,494.476 435.312,502.027L435.312,522.808C435.312,530.359 429.191,536.48 421.64,536.48Z" style="fill-rule:nonzero;"/>
        </g>
    </g>
</svg>
