<?xml version="1.0" encoding="UTF-8" standalone="no"?>
<!DOCTYPE svg PUBLIC "-//W3C//DTD SVG 1.1//EN" "http://www.w3.org/Graphics/SVG/1.1/DTD/svg11.dtd">
<svg width="100%" height="100%" viewBox="0 0 369 488" version="1.1" xmlns="http://www.w3.org/2000/svg" xmlns:xlink="http://www.w3.org/1999/xlink" xml:space="preserve" xmlns:serif="http://www.serif.com/" style="fill-rule:evenodd;clip-rule:evenodd;stroke-linejoin:round;stroke-miterlimit:2;">
    <g transform="matrix(1,0,0,1,-172.414,-36.3102)">
        <g>
            <path d="M480.764,523.91L312.21,523.91C295.054,523.91 281.097,509.855 281.097,492.578L281.097,484.808C281.097,467.773 295.054,453.91 312.21,453.91L480.76,453.91C497.92,453.91 511.877,467.773 511.877,484.812L511.877,492.582C511.877,509.855 497.92,523.91 480.764,523.91ZM312.21,481.254C310.062,481.254 308.441,482.781 308.441,484.813L308.441,492.582C308.441,494.703 310.202,496.57 312.21,496.57L480.76,496.57C482.768,496.57 484.53,494.707 484.53,492.582L484.53,484.813C484.53,482.785 482.908,481.254 480.76,481.254L312.21,481.254Z" style="fill-rule:nonzero;"/>
            <path d="M511.67,215.47L403.26,215.47C386.834,215.47 372.955,201.236 372.955,184.384C372.955,182.064 373.545,179.779 374.674,177.751L405.779,121.692L405.779,87.044C405.779,59.067 428.349,36.31 456.091,36.31C483.833,36.31 506.403,59.072 506.403,87.044L506.403,120.564L539.395,177.134C540.614,179.224 541.258,181.603 541.258,184.021C541.254,201.361 527.981,215.47 511.664,215.47L511.67,215.47ZM401.04,186.587C401.653,187.485 402.54,188.126 403.259,188.126L511.669,188.126C512.036,188.126 512.727,187.521 513.247,186.567L480.927,131.145C479.708,129.056 479.064,126.677 479.064,124.259L479.068,87.044C479.068,73.927 468.978,63.653 456.099,63.653C443.22,63.653 433.13,73.93 433.13,87.044L433.13,120.118C434.212,123.629 433.844,127.481 432.016,130.774L401.04,186.587Z" style="fill-rule:nonzero;"/>
            <path d="M337.42,479.61C329.869,479.61 323.748,473.489 323.748,465.938L323.748,424.778L191.548,305.658C186.294,300.924 185.517,292.967 189.755,287.31L331.925,97.36C334.507,93.911 338.562,91.88 342.87,91.88L418.901,91.88C426.452,91.88 432.573,98.001 432.573,105.552C432.573,113.102 426.452,119.224 418.901,119.224L349.713,119.224L219.123,293.703L346.573,408.544C349.448,411.137 351.092,414.829 351.092,418.7L351.092,465.942C351.092,473.492 344.971,479.614 337.42,479.614L337.42,479.61Z" style="fill-rule:nonzero;"/>
            <path d="M457.3,253.36C428.636,253.36 405.316,230.141 405.316,201.602C405.316,194.051 411.437,187.914 418.988,187.914C419.758,187.914 420.535,187.984 421.304,188.121L493.956,188.121C494.499,188.055 495.054,188.019 495.617,188.019C503.167,188.019 509.289,194.168 509.289,201.714C509.285,230.194 485.965,253.359 457.301,253.359L457.3,253.36ZM437.023,215.465C441.472,221.836 448.902,226.016 457.3,226.016C465.906,226.016 473.347,221.875 477.741,215.465L437.023,215.465Z" style="fill-rule:nonzero;"/>
            <path d="M228.05,295.07C228.05,310.433 215.597,322.886 200.23,322.886C184.867,322.886 172.414,310.433 172.414,295.07C172.414,279.703 184.867,267.25 200.23,267.25C215.597,267.25 228.05,279.703 228.05,295.07" style="fill-rule:nonzero;"/>
            <path d="M370.24,105.85C370.24,121.213 357.787,133.666 342.42,133.666C327.057,133.666 314.604,121.213 314.604,105.85C314.604,90.483 327.057,78.03 342.42,78.03C357.787,78.03 370.24,90.483 370.24,105.85" style="fill-rule:nonzero;"/>
            <path d="M364.77,418.66C364.77,434.023 352.317,446.476 336.95,446.476C321.587,446.476 309.134,434.023 309.134,418.66C309.134,403.293 321.587,390.84 336.95,390.84C352.317,390.84 364.77,403.293 364.77,418.66" style="fill-rule:nonzero;"/>
        </g>
    </g>
</svg>
