<?xml version="1.0" encoding="UTF-8" standalone="no"?>
<!DOCTYPE svg PUBLIC "-//W3C//DTD SVG 1.1//EN" "http://www.w3.org/Graphics/SVG/1.1/DTD/svg11.dtd">
<svg width="100%" height="100%" viewBox="0 0 476 344" version="1.1" xmlns="http://www.w3.org/2000/svg" xmlns:xlink="http://www.w3.org/1999/xlink" xml:space="preserve" xmlns:serif="http://www.serif.com/" style="fill-rule:evenodd;clip-rule:evenodd;stroke-linejoin:round;stroke-miterlimit:2;">
    <g transform="matrix(1,0,0,1,-111.558,-108.836)">
        <g>
            <path d="M573.67,366.41L125.23,366.41C117.679,366.41 111.558,360.289 111.558,352.738L111.558,251.018C111.558,243.467 117.679,237.346 125.23,237.346L547.48,237.346C570.203,237.346 587.335,254.416 587.335,277.053L587.335,352.737C587.335,360.288 581.214,366.409 573.663,366.409L573.67,366.41ZM138.9,339.066L559.99,339.066L559.99,277.054C559.99,269.546 555.08,264.691 547.478,264.691L138.898,264.691L138.9,339.066Z" style="fill-rule:nonzero;"/>
            <path d="M280.55,264.69L125.24,264.69C117.689,264.69 111.568,258.569 111.568,251.018L111.568,200.706C111.568,193.155 117.689,187.034 125.24,187.034L254.13,187.034C276.982,187.034 294.22,203.936 294.22,226.346L294.22,251.018C294.22,258.569 288.099,264.69 280.548,264.69L280.55,264.69ZM138.91,237.346L266.88,237.346L266.88,226.346C266.88,219.077 261.876,214.377 254.134,214.377L138.914,214.377L138.91,237.346Z" style="fill-rule:nonzero;"/>
            <path d="M125.23,452.27C117.679,452.27 111.558,446.149 111.558,438.598L111.558,122.508C111.558,114.957 117.679,108.836 125.23,108.836C132.781,108.836 138.902,114.957 138.902,122.508L138.902,438.598C138.902,446.149 132.781,452.27 125.23,452.27Z" style="fill-rule:nonzero;"/>
            <path d="M573.67,452.27C566.119,452.27 559.998,446.149 559.998,438.598L559.998,308.438C559.998,300.887 566.119,294.766 573.67,294.766C581.221,294.766 587.342,300.887 587.342,308.438L587.342,438.598C587.342,446.149 581.221,452.27 573.67,452.27Z" style="fill-rule:nonzero;"/>
            <path d="M253.2,360.39C245.649,360.39 239.528,354.269 239.528,346.718L239.528,251.562C239.528,244.011 245.649,237.89 253.2,237.89C260.751,237.89 266.872,244.011 266.872,251.562L266.872,346.718C266.872,354.269 260.751,360.39 253.2,360.39Z" style="fill-rule:nonzero;"/>
        </g>
    </g>
</svg>
