<?xml version="1.0" encoding="UTF-8" standalone="no"?>
<!DOCTYPE svg PUBLIC "-//W3C//DTD SVG 1.1//EN" "http://www.w3.org/Graphics/SVG/1.1/DTD/svg11.dtd">
<svg width="100%" height="100%" viewBox="0 0 462 447" version="1.1" xmlns="http://www.w3.org/2000/svg" xmlns:xlink="http://www.w3.org/1999/xlink" xml:space="preserve" xmlns:serif="http://www.serif.com/" style="fill-rule:evenodd;clip-rule:evenodd;stroke-linejoin:round;stroke-miterlimit:2;">
    <g transform="matrix(1,0,0,1,-119.387,-57.0162)">
        <g>
            <path d="M483.44,503.48L217.66,503.48C201.93,503.48 188.129,489.238 188.129,473.007L188.129,221.297C188.129,213.746 194.25,207.625 201.801,207.625C209.352,207.625 215.473,213.746 215.473,221.297L215.473,473.007C215.473,474.245 216.969,475.968 217.766,476.148L483.186,476.14C483.666,475.769 484.538,474.495 484.538,473.011L484.538,221.291C484.538,213.74 490.659,207.619 498.21,207.619C505.761,207.619 511.882,213.74 511.882,221.291L511.882,473.001C511.882,489.521 498.859,503.474 483.444,503.474L483.44,503.48Z" style="fill-rule:nonzero;"/>
            <path d="M133.06,301.68C129.56,301.68 126.064,300.344 123.392,297.676C118.052,292.336 118.052,283.68 123.392,278.34L340.712,61.02C343.275,58.458 346.755,57.016 350.38,57.016C354.005,57.016 357.486,58.458 360.048,61.02L576.598,277.57C581.938,282.91 581.938,291.566 576.598,296.906C571.258,302.246 562.602,302.246 557.262,296.906L350.382,90.026L142.722,297.686C140.05,300.354 136.554,301.69 133.054,301.69L133.06,301.68Z" style="fill-rule:nonzero;"/>
            <path d="M447.89,503.48L251.01,503.48C243.459,503.48 237.338,497.359 237.338,489.808L237.338,440.589C237.338,433.038 243.459,426.917 251.01,426.917L447.89,426.917C455.441,426.917 461.562,433.038 461.562,440.589L461.562,489.808C461.562,497.359 455.441,503.48 447.89,503.48ZM264.69,476.136L434.22,476.136L434.22,454.261L264.69,454.261L264.69,476.136Z" style="fill-rule:nonzero;"/>
            <path d="M447.89,454.27L251.01,454.27C243.459,454.27 237.338,448.149 237.338,440.598L237.338,391.379C237.338,383.828 243.459,377.707 251.01,377.707L447.89,377.707C455.441,377.707 461.562,383.828 461.562,391.379L461.562,440.598C461.562,448.149 455.441,454.27 447.89,454.27ZM264.69,426.926L434.22,426.926L434.22,405.051L264.69,405.051L264.69,426.926Z" style="fill-rule:nonzero;"/>
            <path d="M447.89,399.58L251.01,399.58C243.459,399.58 237.338,393.459 237.338,385.908L237.338,336.689C237.338,329.138 243.459,323.017 251.01,323.017L447.89,323.017C455.441,323.017 461.562,329.138 461.562,336.689L461.562,385.908C461.562,393.459 455.441,399.58 447.89,399.58ZM264.69,372.236L434.22,372.236L434.22,350.361L264.69,350.361L264.69,372.236Z" style="fill-rule:nonzero;"/>
            <path d="M447.89,350.36L251.01,350.36C243.459,350.36 237.338,344.239 237.338,336.688L237.338,287.469C237.338,279.918 243.459,273.797 251.01,273.797L447.89,273.797C455.441,273.797 461.562,279.918 461.562,287.469L461.562,336.688C461.562,344.239 455.441,350.36 447.89,350.36ZM264.69,323.016L434.22,323.016L434.22,301.141L264.69,301.141L264.69,323.016Z" style="fill-rule:nonzero;"/>
        </g>
    </g>
</svg>
