<?xml version="1.0" encoding="UTF-8" standalone="no"?>
<!DOCTYPE svg PUBLIC "-//W3C//DTD SVG 1.1//EN" "http://www.w3.org/Graphics/SVG/1.1/DTD/svg11.dtd">
<svg width="100%" height="100%" viewBox="0 0 700 550" version="1.1" xmlns="http://www.w3.org/2000/svg" xmlns:xlink="http://www.w3.org/1999/xlink" xml:space="preserve" xmlns:serif="http://www.serif.com/" style="fill-rule:evenodd;clip-rule:evenodd;stroke-linejoin:round;stroke-miterlimit:2;">
    <g>
        <path d="M317.78,237.43C316.409,239.805 316.409,242.735 317.78,245.106L343.342,289.383C344.713,291.758 347.244,293.223 349.994,293.223C352.744,293.223 355.276,291.754 356.647,289.383L382.209,245.106C383.58,242.731 383.58,239.801 382.209,237.43C380.838,235.055 378.306,233.59 375.556,233.59L324.427,233.59C321.689,233.594 319.154,235.055 317.779,237.43L317.78,237.43ZM362.264,248.95L349.998,270.188L337.732,248.946L362.264,248.95Z" style="fill-rule:nonzero;"/>
        <path d="M421.38,184.17C421.38,192.869 414.325,199.924 405.626,199.924C396.927,199.924 389.872,192.869 389.872,184.17C389.872,175.471 396.927,168.42 405.626,168.42C414.325,168.42 421.38,175.471 421.38,184.17" style="fill-rule:nonzero;"/>
        <path d="M310.13,184.17C310.13,192.869 303.075,199.924 294.376,199.924C285.677,199.924 278.622,192.869 278.622,184.17C278.622,175.471 285.677,168.42 294.376,168.42C303.075,168.42 310.13,175.471 310.13,184.17" style="fill-rule:nonzero;"/>
        <path d="M405.62,233.21C432.655,233.21 454.655,211.214 454.655,184.175C454.655,157.14 432.659,135.14 405.62,135.14C378.585,135.14 356.585,157.136 356.585,184.175C356.585,211.214 378.577,233.21 405.62,233.21ZM405.62,155.62C421.366,155.62 434.175,168.432 434.175,184.175C434.175,199.918 421.363,212.73 405.62,212.73C389.877,212.73 377.065,199.921 377.065,184.175C377.065,168.429 389.874,155.62 405.62,155.62Z" style="fill-rule:nonzero;"/>
        <path d="M245.34,184.17C245.34,211.205 267.336,233.205 294.375,233.205C321.41,233.205 343.41,211.209 343.41,184.17C343.41,157.135 321.414,135.135 294.375,135.135C267.34,135.139 245.34,157.135 245.34,184.17ZM294.375,155.615C310.121,155.615 322.93,168.427 322.93,184.17C322.93,199.913 310.118,212.725 294.375,212.725C278.632,212.725 265.82,199.916 265.82,184.17C265.82,168.424 278.632,155.615 294.375,155.615Z" style="fill-rule:nonzero;"/>
        <path d="M392.17,70.914C378.877,66.602 364.713,64.238 349.998,64.238C335.279,64.238 321.119,66.598 307.826,70.914L200.786,28L219.606,159.39C215.372,172.566 213.067,186.593 213.067,201.16C213.067,219.652 216.774,237.285 223.442,253.398C211.145,274.777 204.067,299.527 204.067,325.914C204.075,439.544 296.524,531.994 410.157,531.994L495.911,531.994L495.911,480.795L495.907,325.905C495.907,299.518 488.829,274.772 476.532,253.389C483.208,237.284 486.907,219.643 486.907,201.151C486.907,186.585 484.598,172.557 480.368,159.381L499.196,27.991L392.17,70.914ZM349.998,84.723C414.209,84.723 466.438,136.961 466.438,201.163C466.438,265.366 414.208,317.603 349.998,317.603C285.788,317.603 233.558,265.365 233.558,201.163C233.558,136.96 285.788,84.723 349.998,84.723ZM460.668,281.653C469.902,294.028 475.441,309.317 475.441,325.911L475.441,460.321L461.367,460.321C390.719,460.321 332.667,405.512 327.397,336.181C334.756,337.408 342.303,338.079 350.002,338.079C395.436,338.079 435.748,315.821 460.672,281.653L460.668,281.653ZM226.098,60.203L281.762,82.523C278.121,84.629 274.59,86.89 271.168,89.304L238.75,76.308L244.199,114.343C241.109,118.105 238.23,122.05 235.547,126.132L226.098,60.203ZM475.438,511.513L410.165,511.513C307.825,511.513 224.555,428.251 224.555,325.903C224.555,308.001 228.352,290.977 235.141,275.555C251.868,301.285 276.989,321.067 306.61,330.989C309.309,414.044 377.669,480.789 461.37,480.789L475.436,480.789L475.438,511.513ZM455.797,114.343L461.246,76.308L428.828,89.304C425.406,86.886 421.871,84.624 418.234,82.523L473.898,60.203L464.457,126.133C461.765,122.051 458.887,118.106 455.797,114.344L455.797,114.343Z" style="fill-rule:nonzero;"/>
        <g id="w">
        </g>
        <g id="d">
        </g>
        <g id="c">
        </g>
        <g id="a">
        </g>
        <g id="b">
        </g>
        <g id="c1" serif:id="c">
        </g>
        <g id="l">
        </g>
        <g id="k">
        </g>
        <g id="g">
        </g>
        <g id="j">
        </g>
        <g id="i">
        </g>
        <g id="a1" serif:id="a">
        </g>
        <g id="f">
        </g>
        <g id="b1" serif:id="b">
        </g>
        <g id="a2" serif:id="a">
        </g>
        <g id="f1" serif:id="f">
        </g>
        <g id="v">
        </g>
        <g id="a3" serif:id="a">
        </g>
        <g id="u">
        </g>
        <g id="a4" serif:id="a">
        </g>
        <g id="b2" serif:id="b">
        </g>
        <g id="g1" serif:id="g">
        </g>
        <g id="f2" serif:id="f">
        </g>
        <g id="h">
        </g>
        <g id="c2" serif:id="c">
        </g>
        <g id="t">
        </g>
        <g id="a5" serif:id="a">
        </g>
        <g id="s">
        </g>
        <g id="d1" serif:id="d">
        </g>
        <g id="e">
        </g>
        <g id="r">
        </g>
        <g id="b3" serif:id="b">
        </g>
        <g id="h1" serif:id="h">
        </g>
        <g id="c3" serif:id="c">
        </g>
        <g id="q">
        </g>
        <g id="e1" serif:id="e">
        </g>
        <g id="p">
        </g>
        <g id="i1" serif:id="i">
        </g>
        <g id="o">
        </g>
        <g id="d2" serif:id="d">
        </g>
        <g id="e2" serif:id="e">
        </g>
        <g id="n">
        </g>
        <g id="c4" serif:id="c">
        </g>
        <g id="m">
        </g>
        <g id="b4" serif:id="b">
        </g>
    </g>
</svg>
