<?xml version="1.0" encoding="UTF-8" standalone="no"?>
<!DOCTYPE svg PUBLIC "-//W3C//DTD SVG 1.1//EN" "http://www.w3.org/Graphics/SVG/1.1/DTD/svg11.dtd">
<svg width="100%" height="100%" viewBox="0 0 700 550" version="1.1" xmlns="http://www.w3.org/2000/svg" xmlns:xlink="http://www.w3.org/1999/xlink" xml:space="preserve" xmlns:serif="http://www.serif.com/" style="fill-rule:evenodd;clip-rule:evenodd;stroke-linejoin:round;stroke-miterlimit:2;">
    <g>
        <path d="M446.8,244.97C439.249,244.97 433.128,238.849 433.128,231.298L433.128,134.501C433.128,126.95 439.249,120.829 446.8,120.829L543.597,120.829C551.148,120.829 557.269,126.95 557.269,134.501C557.269,142.052 551.148,148.173 543.597,148.173L460.472,148.173L460.472,231.298C460.472,238.849 454.351,244.97 446.8,244.97Z" style="fill-rule:nonzero;"/>
        <path d="M351.64,342.32C344.089,342.32 337.968,336.199 337.968,328.648L337.968,231.851C337.968,224.3 344.089,218.179 351.64,218.179L447.343,218.179C454.894,218.179 461.015,224.3 461.015,231.851C461.015,239.402 454.894,245.523 447.343,245.523L365.312,245.523L365.312,328.648C365.312,336.199 359.191,342.32 351.64,342.32Z" style="fill-rule:nonzero;"/>
        <path d="M253.2,439.66C245.649,439.66 239.528,433.539 239.528,425.988L239.528,329.191C239.528,321.64 245.649,315.519 253.2,315.519L351.091,315.519C358.642,315.519 364.763,321.64 364.763,329.191C364.763,336.742 358.642,342.863 351.091,342.863L266.872,342.863L266.872,425.988C266.872,433.539 260.751,439.66 253.2,439.66Z" style="fill-rule:nonzero;"/>
        <path d="M252.66,440.21L156.41,440.21C148.859,440.21 142.738,434.089 142.738,426.538C142.738,418.987 148.859,412.866 156.41,412.866L252.66,412.866C260.211,412.866 266.332,418.987 266.332,426.538C266.332,434.089 260.211,440.21 252.66,440.21Z" style="fill-rule:nonzero;"/>
        <path d="M170.05,217.86C166.55,217.86 163.054,216.524 160.382,213.856C155.042,208.516 155.042,199.86 160.382,194.52L228.265,126.641C233.605,121.305 242.261,121.301 247.601,126.641C252.941,131.981 252.941,140.637 247.601,145.977L179.718,213.856C177.05,216.524 173.55,217.86 170.05,217.86Z" style="fill-rule:nonzero;"/>
        <path d="M238.98,209.97C231.429,209.97 225.308,203.849 225.308,196.298L225.308,148.173L178.277,148.173C170.726,148.173 164.605,142.052 164.605,134.501C164.605,126.95 170.726,120.829 178.277,120.829L238.98,120.829C246.531,120.829 252.652,126.95 252.652,134.501L252.652,196.298C252.652,203.849 246.531,209.97 238.98,209.97Z" style="fill-rule:nonzero;"/>
        <g id="t">
        </g>
        <g id="d">
        </g>
        <g id="a">
        </g>
        <g id="l">
        </g>
        <g id="c">
        </g>
        <g id="a1" serif:id="a">
        </g>
        <g id="f">
        </g>
        <g id="k">
        </g>
        <g id="j">
        </g>
        <g id="e">
        </g>
        <g id="i">
        </g>
        <g id="b">
        </g>
        <g id="h">
        </g>
        <g id="g">
        </g>
        <g id="e1" serif:id="e">
        </g>
        <g id="a2" serif:id="a">
        </g>
        <g id="s">
        </g>
        <g id="f1" serif:id="f">
        </g>
        <g id="g1" serif:id="g">
        </g>
        <g id="d1" serif:id="d">
        </g>
        <g id="b1" serif:id="b">
        </g>
        <g id="r">
        </g>
        <g id="c1" serif:id="c">
        </g>
        <g id="q">
        </g>
        <g id="a3" serif:id="a">
        </g>
        <g id="p">
        </g>
        <g id="b2" serif:id="b">
        </g>
        <g id="o">
        </g>
        <g id="h1" serif:id="h">
        </g>
        <g id="n">
        </g>
        <g id="d2" serif:id="d">
        </g>
        <g id="b3" serif:id="b">
        </g>
        <g id="m">
        </g>
        <g id="a4" serif:id="a">
        </g>
        <g id="i1" serif:id="i">
        </g>
        <g id="c2" serif:id="c">
        </g>
    </g>
</svg>
