<?xml version="1.0" encoding="UTF-8" standalone="no"?>
<!DOCTYPE svg PUBLIC "-//W3C//DTD SVG 1.1//EN" "http://www.w3.org/Graphics/SVG/1.1/DTD/svg11.dtd">
<svg width="100%" height="100%" viewBox="0 0 700 550" version="1.1" xmlns="http://www.w3.org/2000/svg" xmlns:xlink="http://www.w3.org/1999/xlink" xml:space="preserve" xmlns:serif="http://www.serif.com/" style="fill-rule:evenodd;clip-rule:evenodd;stroke-linejoin:round;stroke-miterlimit:2;">
    <g>
        <path d="M493.83,325.94L205.08,325.94C197.529,325.94 191.408,319.819 191.408,312.268L191.408,32.268C191.408,24.717 197.529,18.596 205.08,18.596L493.83,18.596C501.381,18.596 507.502,24.717 507.502,32.268L507.502,312.268C507.502,319.819 501.381,325.94 493.83,325.94ZM218.75,298.596L480.16,298.596L480.16,45.936L218.75,45.936L218.75,298.596Z" style="fill-rule:nonzero;"/>
        <path d="M504.77,407.97L194.15,407.97C186.599,407.97 180.478,401.849 180.478,394.298L180.478,312.267C180.478,304.716 186.599,298.595 194.15,298.595L504.77,298.595C512.321,298.595 518.442,304.716 518.442,312.267L518.442,394.298C518.442,401.849 512.321,407.97 504.77,407.97ZM207.82,380.626L491.1,380.626L491.1,325.938L207.82,325.938L207.82,380.626Z" style="fill-rule:nonzero;"/>
        <path d="M352.631,543.59L347.821,543.59C327.915,543.59 311.716,527.598 311.716,507.938L311.716,395.388C311.716,387.837 317.837,381.716 325.388,381.716L374.607,381.716C382.158,381.716 388.279,387.837 388.279,395.388L388.279,507.938C388.279,527.93 372.619,543.59 352.631,543.59ZM339.06,409.06L339.06,507.939C339.06,512.677 342.826,516.248 347.822,516.248L352.63,516.248C357.443,516.248 360.935,512.752 360.935,507.939L360.935,409.06L339.06,409.06Z" style="fill-rule:nonzero;"/>
        <path d="M349.45,326.48C341.899,326.48 335.778,320.359 335.778,312.808L335.778,202.338C335.778,194.787 341.899,188.666 349.45,188.666C357.001,188.666 363.122,194.787 363.122,202.338L363.122,312.808C363.122,320.359 357.001,326.48 349.45,326.48Z" style="fill-rule:nonzero;"/>
        <path d="M280.55,326.48C272.999,326.48 266.878,320.359 266.878,312.808L266.878,202.338C266.878,194.787 272.999,188.666 280.55,188.666C288.101,188.666 294.222,194.787 294.222,202.338L294.222,312.808C294.222,320.359 288.101,326.48 280.55,326.48Z" style="fill-rule:nonzero;"/>
        <path d="M413.98,326.48C406.429,326.48 400.308,320.359 400.308,312.808L400.308,202.338C400.308,194.787 406.429,188.666 413.98,188.666C421.531,188.666 427.652,194.787 427.652,202.338L427.652,312.808C427.652,320.359 421.531,326.48 413.98,326.48Z" style="fill-rule:nonzero;"/>
        <g id="t">
        </g>
        <g id="d">
        </g>
        <g id="a">
        </g>
        <g id="l">
        </g>
        <g id="c">
        </g>
        <g id="a1" serif:id="a">
        </g>
        <g id="f">
        </g>
        <g id="k">
        </g>
        <g id="j">
        </g>
        <g id="e">
        </g>
        <g id="i">
        </g>
        <g id="b">
        </g>
        <g id="h">
        </g>
        <g id="g">
        </g>
        <g id="e1" serif:id="e">
        </g>
        <g id="a2" serif:id="a">
        </g>
        <g id="s">
        </g>
        <g id="f1" serif:id="f">
        </g>
        <g id="g1" serif:id="g">
        </g>
        <g id="d1" serif:id="d">
        </g>
        <g id="b1" serif:id="b">
        </g>
        <g id="r">
        </g>
        <g id="c1" serif:id="c">
        </g>
        <g id="q">
        </g>
        <g id="a3" serif:id="a">
        </g>
        <g id="p">
        </g>
        <g id="b2" serif:id="b">
        </g>
        <g id="o">
        </g>
        <g id="h1" serif:id="h">
        </g>
        <g id="n">
        </g>
        <g id="d2" serif:id="d">
        </g>
        <g id="b3" serif:id="b">
        </g>
        <g id="m">
        </g>
        <g id="a4" serif:id="a">
        </g>
        <g id="i1" serif:id="i">
        </g>
        <g id="c2" serif:id="c">
        </g>
    </g>
</svg>
