<?xml version="1.0" encoding="UTF-8" standalone="no"?>
<!DOCTYPE svg PUBLIC "-//W3C//DTD SVG 1.1//EN" "http://www.w3.org/Graphics/SVG/1.1/DTD/svg11.dtd">
<svg width="100%" height="100%" viewBox="0 0 700 550" version="1.1" xmlns="http://www.w3.org/2000/svg" xmlns:xlink="http://www.w3.org/1999/xlink" xml:space="preserve" xmlns:serif="http://www.serif.com/" style="fill-rule:evenodd;clip-rule:evenodd;stroke-linejoin:round;stroke-miterlimit:2;">
    <g>
        <path d="M349.74,92.402C330.619,92.402 316.439,103.597 316.439,120.39L316.439,180.39C244.599,198.187 198.389,269.628 209.389,343.77C202.112,345.766 194.854,347.829 187.596,349.891C199.588,359.868 212.776,370.059 223.334,378.579C229.404,362.548 234.455,350.356 240.244,335.372C233.533,337.075 226.865,338.935 220.193,340.794C210.791,273.634 251.927,209.504 316.431,192.104L316.431,269.073C299.958,281.065 288.536,298.389 288.536,318.225C288.536,354.037 315.876,383.471 349.903,383.471C383.93,383.471 411.27,354.037 411.27,318.225C411.27,298.385 399.848,281.061 383.375,269.073C383.379,253.37 383.508,221.792 383.551,192.104C408.047,198.741 430.645,212.741 448.059,232.862C449.86,235.456 453.938,235.862 456.254,233.737C458.567,231.612 458.578,227.456 456.254,225.343C436.699,202.749 411.242,187.269 383.555,180.386C383.676,158.796 383.383,139.234 383.379,120.386C383.465,103.593 366.731,92.398 349.731,92.398L349.74,92.402ZM349.74,103.597C364.123,103.597 372.228,112.925 372.228,120.39C372.224,124.203 372.228,127.898 372.228,131.585L349.912,131.585L349.912,142.78L372.4,142.78C372.404,145.866 372.4,150.448 372.4,153.975L349.912,153.975L349.912,165.17L372.4,165.17C372.4,169.049 372.404,172.232 372.4,176.365L355.49,176.365L355.49,170.767L344.334,170.767L344.334,294.617C331.654,297.238 322.018,308.437 322.018,321.906C322.018,337.297 334.573,349.894 349.913,349.894C365.253,349.894 377.808,337.296 377.808,321.906C377.808,308.437 368.171,297.238 355.492,294.617L355.492,254.734L372.23,254.734C372.218,259.293 372.23,268.312 372.23,271.527C372.195,273.375 373.148,275.211 374.671,276.25C390.218,286.648 400.124,301.812 400.124,318.23C400.124,348.371 377.507,372.281 349.913,372.281C322.319,372.281 299.702,348.367 299.702,318.23C299.702,301.812 309.609,286.648 325.155,276.25C326.679,275.211 327.628,273.375 327.597,271.527L327.597,120.387C327.597,112.922 335.608,103.594 349.738,103.594L349.74,103.597ZM355.494,187.562L372.404,187.562C372.4,191.871 372.408,194.402 372.404,198.757L355.494,198.757L355.494,187.562ZM355.494,209.953L372.404,209.953C372.392,214.25 372.416,217.012 372.404,221.148L355.494,221.148L355.494,209.953ZM355.494,232.344L372.232,232.344C372.22,236.219 372.244,240.032 372.232,243.539L355.494,243.539L355.494,232.344ZM476.484,265.406C470.836,280.094 464.511,295.672 459.574,308.437C466.269,306.671 472.945,304.839 479.625,303.015C489.258,371.245 446.676,436.725 379.902,452.755C330.457,464.626 278.782,446.111 247.222,405.349C245.362,403.232 241.862,402.923 239.675,404.677C237.487,406.435 236.944,409.99 238.507,412.345C272.698,456.517 328.753,476.638 382.337,463.775C454.958,446.341 501.427,374.486 490.427,300.225C497.751,298.198 505.075,296.151 512.396,294.104C500.205,284.303 487.283,273.694 476.482,265.416L476.484,265.406ZM349.914,305.113C359.223,305.113 366.652,312.566 366.652,321.906C366.652,331.246 359.226,338.699 349.914,338.699C340.605,338.699 333.176,331.246 333.176,321.906C333.176,312.566 340.602,305.113 349.914,305.113Z" style="fill-rule:nonzero;"/>
    </g>
</svg>
