<?xml version="1.0" encoding="UTF-8" standalone="no"?>
<!DOCTYPE svg PUBLIC "-//W3C//DTD SVG 1.1//EN" "http://www.w3.org/Graphics/SVG/1.1/DTD/svg11.dtd">
<svg width="100%" height="100%" viewBox="0 0 700 550" version="1.1" xmlns="http://www.w3.org/2000/svg" xmlns:xlink="http://www.w3.org/1999/xlink" xml:space="preserve" xmlns:serif="http://www.serif.com/" style="fill-rule:evenodd;clip-rule:evenodd;stroke-linejoin:round;stroke-miterlimit:2;">
    <g>
        <path d="M545.23,294.22L400.85,294.22C393.299,294.22 387.178,288.099 387.178,280.548L387.178,163.518C387.178,155.967 393.299,149.846 400.85,149.846L545.23,149.846C552.781,149.846 558.902,155.967 558.902,163.518L558.902,280.548C558.902,288.099 552.781,294.22 545.23,294.22ZM414.53,266.876L531.56,266.876L531.56,177.188L414.53,177.188L414.53,266.876Z" style="fill-rule:nonzero;"/>
        <path d="M545.23,410.16L400.85,410.16C393.299,410.16 387.178,404.039 387.178,396.488L387.178,279.458C387.178,271.907 393.299,265.786 400.85,265.786L545.23,265.786C552.781,265.786 558.902,271.907 558.902,279.458L558.902,396.488C558.902,404.039 552.781,410.16 545.23,410.16ZM414.53,382.816L531.56,382.816L531.56,293.128L414.53,293.128L414.53,382.816Z" style="fill-rule:nonzero;"/>
        <path d="M585.16,177.19L114.85,177.19C107.299,177.19 101.178,171.069 101.178,163.518C101.178,155.967 107.299,149.846 114.85,149.846L585.16,149.846C592.711,149.846 598.832,155.967 598.832,163.518C598.832,171.069 592.711,177.19 585.16,177.19Z" style="fill-rule:nonzero;"/>
        <path d="M490,221.76C490,230.823 482.656,238.166 473.594,238.166C464.532,238.166 457.188,230.822 457.188,221.76C457.188,212.698 464.532,205.354 473.594,205.354C482.656,205.354 490,212.698 490,221.76" style="fill-rule:nonzero;"/>
        <path d="M490,337.7C490,346.763 482.656,354.106 473.594,354.106C464.532,354.106 457.188,346.762 457.188,337.7C457.188,328.638 464.532,321.294 473.594,321.294C482.656,321.294 490,328.638 490,337.7" style="fill-rule:nonzero;"/>
        <path d="M164.61,410.7C157.059,410.7 150.938,404.579 150.938,397.028L150.938,164.058C150.938,156.507 157.059,150.386 164.61,150.386C172.161,150.386 178.282,156.507 178.282,164.058L178.282,397.028C178.282,404.579 172.161,410.7 164.61,410.7Z" style="fill-rule:nonzero;"/>
        <path d="M400.31,219.84L167.34,219.84C159.789,219.84 153.668,213.719 153.668,206.168C153.668,198.617 159.789,192.496 167.34,192.496L400.31,192.496C407.861,192.496 413.982,198.617 413.982,206.168C413.982,213.719 407.861,219.84 400.31,219.84Z" style="fill-rule:nonzero;"/>
        <g id="t">
        </g>
        <g id="d">
        </g>
        <g id="a">
        </g>
        <g id="l">
        </g>
        <g id="c">
        </g>
        <g id="a1" serif:id="a">
        </g>
        <g id="f">
        </g>
        <g id="k">
        </g>
        <g id="j">
        </g>
        <g id="e">
        </g>
        <g id="i">
        </g>
        <g id="b">
        </g>
        <g id="h">
        </g>
        <g id="g">
        </g>
        <g id="e1" serif:id="e">
        </g>
        <g id="a2" serif:id="a">
        </g>
        <g id="s">
        </g>
        <g id="f1" serif:id="f">
        </g>
        <g id="g1" serif:id="g">
        </g>
        <g id="d1" serif:id="d">
        </g>
        <g id="b1" serif:id="b">
        </g>
        <g id="r">
        </g>
        <g id="c1" serif:id="c">
        </g>
        <g id="q">
        </g>
        <g id="a3" serif:id="a">
        </g>
        <g id="p">
        </g>
        <g id="b2" serif:id="b">
        </g>
        <g id="o">
        </g>
        <g id="h1" serif:id="h">
        </g>
        <g id="n">
        </g>
        <g id="d2" serif:id="d">
        </g>
        <g id="b3" serif:id="b">
        </g>
        <g id="m">
        </g>
        <g id="a4" serif:id="a">
        </g>
        <g id="i1" serif:id="i">
        </g>
        <g id="c2" serif:id="c">
        </g>
    </g>
</svg>
