<?xml version="1.0" encoding="UTF-8" standalone="no"?>
<!DOCTYPE svg PUBLIC "-//W3C//DTD SVG 1.1//EN" "http://www.w3.org/Graphics/SVG/1.1/DTD/svg11.dtd">
<svg width="100%" height="100%" viewBox="0 0 700 550" version="1.1" xmlns="http://www.w3.org/2000/svg" xmlns:xlink="http://www.w3.org/1999/xlink" xml:space="preserve" xmlns:serif="http://www.serif.com/" style="fill-rule:evenodd;clip-rule:evenodd;stroke-linejoin:round;stroke-miterlimit:2;">
    <g>
        <path d="M553.983,389.38L144.92,389.38C128.94,389.38 115.936,376.501 115.936,360.669L115.936,220.669C115.936,204.536 128.94,191.411 144.92,191.411L205.076,191.411C212.627,191.411 218.748,197.532 218.748,205.083L218.748,275.356C218.748,276.434 219.779,276.723 220.389,276.723L479.609,276.723C480.218,276.723 481.249,276.434 481.249,275.356L481.249,205.083C481.249,197.532 487.37,191.411 494.921,191.411L553.983,191.411C569.963,191.411 582.967,204.536 582.967,220.669L582.967,360.669C582.967,376.501 569.963,389.38 553.983,389.38ZM144.92,218.76C144.092,218.76 143.279,219.709 143.279,220.674L143.279,360.674C143.279,361.752 144.311,362.041 144.92,362.041L553.98,362.041C554.589,362.041 555.621,361.752 555.621,360.674L555.621,220.674C555.621,219.709 554.808,218.76 553.98,218.76L508.589,218.76L508.589,275.362C508.589,291.194 495.585,304.073 479.605,304.073L220.385,304.073C204.405,304.073 191.401,291.194 191.401,275.362L191.401,218.76L144.92,218.76Z" style="fill-rule:nonzero;"/>
        <path d="M334.14,304.06L220.39,304.06C204.41,304.06 191.406,291.056 191.406,275.076L191.406,161.326C191.406,145.346 204.41,132.342 220.39,132.342L334.14,132.342C350.12,132.342 363.124,145.346 363.124,161.326L363.124,275.076C363.124,291.056 350.12,304.06 334.14,304.06ZM220.39,159.68C219.484,159.68 218.749,160.414 218.749,161.321L218.749,275.071C218.749,275.977 219.484,276.711 220.39,276.711L334.14,276.711C335.046,276.711 335.781,275.977 335.781,275.071L335.781,161.321C335.781,160.414 335.046,159.68 334.14,159.68L220.39,159.68Z" style="fill-rule:nonzero;"/>
        <path d="M479.61,304.06L365.86,304.06C349.88,304.06 336.876,291.056 336.876,275.076L336.876,161.326C336.876,145.346 349.88,132.342 365.86,132.342L479.61,132.342C495.59,132.342 508.594,145.346 508.594,161.326L508.594,275.076C508.594,291.056 495.59,304.06 479.61,304.06ZM365.86,159.68C364.954,159.68 364.219,160.414 364.219,161.321L364.219,275.071C364.219,275.977 364.954,276.711 365.86,276.711L479.61,276.711C480.516,276.711 481.251,275.977 481.251,275.071L481.251,161.321C481.251,160.414 480.516,159.68 479.61,159.68L365.86,159.68Z" style="fill-rule:nonzero;"/>
        <path d="M205.08,427.11C197.529,427.11 191.408,420.989 191.408,413.438L191.408,376.25C191.408,368.699 197.529,362.578 205.08,362.578C212.631,362.578 218.752,368.699 218.752,376.25L218.752,413.438C218.752,420.989 212.631,427.11 205.08,427.11Z" style="fill-rule:nonzero;"/>
        <path d="M494.92,427.11C487.369,427.11 481.248,420.989 481.248,413.438L481.248,376.25C481.248,368.699 487.369,362.578 494.92,362.578C502.471,362.578 508.592,368.699 508.592,376.25L508.592,413.438C508.592,420.989 502.471,427.11 494.92,427.11Z" style="fill-rule:nonzero;"/>
        <g id="t">
        </g>
        <g id="d">
        </g>
        <g id="a">
        </g>
        <g id="l">
        </g>
        <g id="c">
        </g>
        <g id="a1" serif:id="a">
        </g>
        <g id="f">
        </g>
        <g id="k">
        </g>
        <g id="j">
        </g>
        <g id="e">
        </g>
        <g id="i">
        </g>
        <g id="b">
        </g>
        <g id="h">
        </g>
        <g id="g">
        </g>
        <g id="e1" serif:id="e">
        </g>
        <g id="a2" serif:id="a">
        </g>
        <g id="s">
        </g>
        <g id="f1" serif:id="f">
        </g>
        <g id="g1" serif:id="g">
        </g>
        <g id="d1" serif:id="d">
        </g>
        <g id="b1" serif:id="b">
        </g>
        <g id="r">
        </g>
        <g id="c1" serif:id="c">
        </g>
        <g id="q">
        </g>
        <g id="a3" serif:id="a">
        </g>
        <g id="p">
        </g>
        <g id="b2" serif:id="b">
        </g>
        <g id="o">
        </g>
        <g id="h1" serif:id="h">
        </g>
        <g id="n">
        </g>
        <g id="d2" serif:id="d">
        </g>
        <g id="b3" serif:id="b">
        </g>
        <g id="m">
        </g>
        <g id="a4" serif:id="a">
        </g>
        <g id="i1" serif:id="i">
        </g>
        <g id="c2" serif:id="c">
        </g>
    </g>
</svg>
