<?xml version="1.0" encoding="UTF-8" standalone="no"?>
<!DOCTYPE svg PUBLIC "-//W3C//DTD SVG 1.1//EN" "http://www.w3.org/Graphics/SVG/1.1/DTD/svg11.dtd">
<svg width="100%" height="100%" viewBox="0 0 700 550" version="1.1" xmlns="http://www.w3.org/2000/svg" xmlns:xlink="http://www.w3.org/1999/xlink" xml:space="preserve" xmlns:serif="http://www.serif.com/" style="fill-rule:evenodd;clip-rule:evenodd;stroke-linejoin:round;stroke-miterlimit:2;">
    <g>
        <path d="M349.45,396L201.79,396C194.239,396 188.118,389.879 188.118,382.328L188.118,39.988C188.118,32.437 194.239,26.316 201.79,26.316L349.45,26.316C357.001,26.316 363.122,32.437 363.122,39.988L363.122,382.328C363.122,389.879 357.001,396 349.45,396ZM215.47,368.656L335.78,368.656L335.78,53.656L215.47,53.656L215.47,368.656Z" style="fill-rule:nonzero;"/>
        <path d="M305.7,247.8C298.149,247.8 292.028,241.679 292.028,234.128L292.028,187.097C292.028,179.546 298.149,173.425 305.7,173.425C313.251,173.425 319.372,179.546 319.372,187.097L319.372,234.128C319.372,241.679 313.251,247.8 305.7,247.8Z" style="fill-rule:nonzero;"/>
        <path d="M498.2,396L349.45,396C341.899,396 335.778,389.879 335.778,382.328L335.778,39.988C335.778,32.437 341.899,26.316 349.45,26.316L498.2,26.316C505.751,26.316 511.872,32.437 511.872,39.988L511.872,382.328C511.872,389.879 505.751,396 498.2,396ZM363.12,368.656L484.53,368.656L484.53,53.656L363.12,53.656L363.12,368.656Z" style="fill-rule:nonzero;"/>
        <path d="M394.3,247.8C386.749,247.8 380.628,241.679 380.628,234.128L380.628,187.097C380.628,179.546 386.749,173.425 394.3,173.425C401.851,173.425 407.972,179.546 407.972,187.097L407.972,234.128C407.972,241.679 401.851,247.8 394.3,247.8Z" style="fill-rule:nonzero;"/>
        <path d="M498.2,505.38L201.79,505.38C194.239,505.38 188.118,499.259 188.118,491.708L188.118,382.328C188.118,374.777 194.239,368.656 201.79,368.656L498.2,368.656C505.751,368.656 511.872,374.777 511.872,382.328L511.872,491.708C511.872,499.259 505.751,505.38 498.2,505.38ZM215.47,478.036L484.53,478.036L484.53,396.005L215.47,396.005L215.47,478.036Z" style="fill-rule:nonzero;"/>
        <path d="M381.72,437.57L322.658,437.57C315.107,437.57 308.986,431.449 308.986,423.898C308.986,416.347 315.107,410.226 322.658,410.226L381.72,410.226C389.271,410.226 395.392,416.347 395.392,423.898C395.392,431.449 389.271,437.57 381.72,437.57Z" style="fill-rule:nonzero;"/>
        <path d="M247.73,534.36C240.179,534.36 234.058,528.239 234.058,520.688L234.058,492.25C234.058,484.699 240.179,478.578 247.73,478.578C255.281,478.578 261.402,484.699 261.402,492.25L261.402,520.688C261.402,528.239 255.281,534.36 247.73,534.36Z" style="fill-rule:nonzero;"/>
        <path d="M454.45,534.36C446.899,534.36 440.778,528.239 440.778,520.688L440.778,492.25C440.778,484.699 446.899,478.578 454.45,478.578C462.001,478.578 468.122,484.699 468.122,492.25L468.122,520.688C468.122,528.239 462.001,534.36 454.45,534.36Z" style="fill-rule:nonzero;"/>
        <g id="t">
        </g>
        <g id="d">
        </g>
        <g id="a">
        </g>
        <g id="l">
        </g>
        <g id="c">
        </g>
        <g id="a1" serif:id="a">
        </g>
        <g id="f">
        </g>
        <g id="k">
        </g>
        <g id="j">
        </g>
        <g id="e">
        </g>
        <g id="i">
        </g>
        <g id="b">
        </g>
        <g id="h">
        </g>
        <g id="g">
        </g>
        <g id="e1" serif:id="e">
        </g>
        <g id="a2" serif:id="a">
        </g>
        <g id="s">
        </g>
        <g id="f1" serif:id="f">
        </g>
        <g id="g1" serif:id="g">
        </g>
        <g id="d1" serif:id="d">
        </g>
        <g id="b1" serif:id="b">
        </g>
        <g id="r">
        </g>
        <g id="c1" serif:id="c">
        </g>
        <g id="q">
        </g>
        <g id="a3" serif:id="a">
        </g>
        <g id="p">
        </g>
        <g id="b2" serif:id="b">
        </g>
        <g id="o">
        </g>
        <g id="h1" serif:id="h">
        </g>
        <g id="n">
        </g>
        <g id="d2" serif:id="d">
        </g>
        <g id="b3" serif:id="b">
        </g>
        <g id="m">
        </g>
        <g id="a4" serif:id="a">
        </g>
        <g id="i1" serif:id="i">
        </g>
        <g id="c2" serif:id="c">
        </g>
    </g>
</svg>
