<?xml version="1.0" encoding="UTF-8" standalone="no"?>
<!DOCTYPE svg PUBLIC "-//W3C//DTD SVG 1.1//EN" "http://www.w3.org/Graphics/SVG/1.1/DTD/svg11.dtd">
<svg width="100%" height="100%" viewBox="0 0 700 550" version="1.1" xmlns="http://www.w3.org/2000/svg" xmlns:xlink="http://www.w3.org/1999/xlink" xml:space="preserve" xmlns:serif="http://www.serif.com/" style="fill-rule:evenodd;clip-rule:evenodd;stroke-linejoin:round;stroke-miterlimit:2;">
    <g>
        <path d="M477.68,111.44L380.239,111.44L382.477,87.92L382.477,85.682C382.477,69.444 367.918,56.002 349.997,56.002C330.958,56.002 316.395,71.123 318.075,88.482L320.314,112.002L222.322,111.998C210.56,111.998 201.603,121.517 201.603,132.717L201.603,483.277C201.603,495.039 211.122,503.996 222.322,503.996L477.122,503.996C488.884,503.996 497.841,494.476 497.841,483.277L497.841,132.717C498.399,120.959 488.88,111.44 477.681,111.44L477.68,111.44ZM490.559,483.28C490.559,490.561 484.399,496.159 477.68,496.159L222.32,496.159C215.039,496.159 209.441,489.999 209.441,483.28L209.441,132.72C209.441,125.439 215.601,119.841 222.32,119.841L294,119.841L294,155.122C294,158.481 296.801,161.282 300.16,161.282L399.84,161.282C403.2,161.282 406,158.481 406,155.122L406,119.841L477.68,119.841C484.962,119.841 490.559,126.001 490.559,132.72L490.559,483.28Z" style="fill-rule:nonzero;"/>
        <path d="M264.88,215.6C264.88,222.092 259.614,227.358 253.122,227.358C246.626,227.358 241.36,222.092 241.36,215.6C241.36,209.104 246.626,203.838 253.122,203.838C259.614,203.838 264.88,209.104 264.88,215.6" style="fill-rule:nonzero;"/>
        <path d="M454.72,219.52L296.24,219.52C294.002,219.52 292.318,217.84 292.318,215.598C292.318,213.36 293.998,211.676 296.24,211.676L454.72,211.676C456.958,211.676 458.642,213.356 458.642,215.598C458.642,217.84 456.4,219.52 454.72,219.52Z" style="fill-rule:nonzero;"/>
        <path d="M264.88,272.72C264.88,279.216 259.614,284.482 253.122,284.482C246.626,284.482 241.36,279.216 241.36,272.72C241.36,266.228 246.626,260.962 253.122,260.962C259.614,260.962 264.88,266.228 264.88,272.72" style="fill-rule:nonzero;"/>
        <path d="M454.72,276.64L296.24,276.64C294.002,276.64 292.318,274.96 292.318,272.718C292.322,270.48 294.002,268.8 296.24,268.8L454.72,268.8C456.958,268.8 458.642,270.48 458.642,272.722C458.642,274.96 456.4,276.64 454.72,276.64Z" style="fill-rule:nonzero;"/>
        <path d="M264.88,329.84C264.88,336.336 259.614,341.602 253.122,341.602C246.626,341.602 241.36,336.336 241.36,329.84C241.36,323.344 246.626,318.078 253.122,318.078C259.614,318.078 264.88,323.344 264.88,329.84" style="fill-rule:nonzero;"/>
        <path d="M454.72,333.2L296.24,333.2C294.002,333.2 292.318,331.52 292.318,329.278C292.318,327.04 293.998,325.356 296.24,325.356L454.72,325.356C456.958,325.356 458.642,327.036 458.642,329.278C458.642,331.52 456.4,333.2 454.72,333.2Z" style="fill-rule:nonzero;"/>
        <path d="M264.88,386.4C264.88,392.896 259.614,398.162 253.122,398.162C246.626,398.162 241.36,392.896 241.36,386.4C241.36,379.908 246.626,374.642 253.122,374.642C259.614,374.642 264.88,379.908 264.88,386.4" style="fill-rule:nonzero;"/>
        <path d="M454.72,390.32L296.24,390.32C294.002,390.32 292.318,388.64 292.318,386.398C292.318,384.16 293.998,382.476 296.24,382.476L454.72,382.476C456.958,382.476 458.642,384.156 458.642,386.398C458.079,388.64 456.4,390.32 454.72,390.32Z" style="fill-rule:nonzero;"/>
        <path d="M264.88,443.52C264.88,450.016 259.614,455.282 253.122,455.282C246.626,455.282 241.36,450.016 241.36,443.52C241.36,437.024 246.626,431.762 253.122,431.762C259.614,431.762 264.88,437.024 264.88,443.52" style="fill-rule:nonzero;"/>
        <path d="M454.72,446.88L296.24,446.88C294.002,446.88 292.318,445.2 292.318,442.958C292.318,440.72 293.998,439.036 296.24,439.036L454.72,439.036C456.958,439.036 458.642,440.716 458.642,442.958C458.079,445.2 456.4,446.88 454.72,446.88Z" style="fill-rule:nonzero;"/>
    </g>
</svg>
