<?xml version="1.0" encoding="UTF-8" standalone="no"?>
<!DOCTYPE svg PUBLIC "-//W3C//DTD SVG 1.1//EN" "http://www.w3.org/Graphics/SVG/1.1/DTD/svg11.dtd">
<svg width="100%" height="100%" viewBox="0 0 700 550" version="1.1" xmlns="http://www.w3.org/2000/svg" xmlns:xlink="http://www.w3.org/1999/xlink" xml:space="preserve" xmlns:serif="http://www.serif.com/" style="fill-rule:evenodd;clip-rule:evenodd;stroke-linejoin:round;stroke-miterlimit:2;">
    <g>
        <path d="M382.85,63.188C382.85,43.622 368.108,27.715 349.987,27.715C331.862,27.715 317.124,43.629 317.124,63.188L317.124,85.977L134.154,85.977L134.154,94.727L317.124,94.727L317.124,117.516C317.124,137.082 331.866,152.989 349.987,152.989C368.112,152.989 382.85,137.075 382.85,117.516L382.85,94.727L565.85,94.727L565.85,85.977L382.85,85.977L382.85,63.188ZM374.1,63.188L374.1,117.516C374.1,132.25 363.284,144.239 349.987,144.239C336.686,144.239 325.874,132.251 325.874,117.516L325.874,63.188C325.874,48.454 336.69,36.465 349.987,36.465C363.288,36.465 374.1,48.453 374.1,63.188Z" style="fill-rule:nonzero;"/>
        <path d="M382.85,252.84C382.85,233.274 368.108,217.367 349.987,217.367C331.862,217.367 317.124,233.281 317.124,252.84L317.124,275.629L134.154,275.629L134.154,284.379L317.124,284.379L317.124,307.168C317.124,326.734 331.866,342.641 349.987,342.641C368.112,342.641 382.85,326.727 382.85,307.168L382.85,284.379L565.85,284.379L565.85,275.629L382.85,275.629L382.85,252.84ZM374.1,252.84L374.1,307.168C374.1,321.902 363.284,333.891 349.987,333.891C336.686,333.891 325.874,321.903 325.874,307.168L325.874,252.84C325.874,238.106 336.69,226.117 349.987,226.117C363.288,226.117 374.1,238.105 374.1,252.84Z" style="fill-rule:nonzero;"/>
        <path d="M382.86,442.49C382.86,422.924 368.118,407.017 349.997,407.017C331.872,407.017 317.134,422.931 317.134,442.49L317.134,465.279L134.154,465.279L134.154,474.029L317.134,474.029L317.134,496.818C317.134,516.384 331.876,532.291 349.997,532.291C368.122,532.291 382.86,516.377 382.86,496.818L382.86,474.029L565.84,474.029L565.84,465.279L382.86,465.279L382.86,442.49ZM374.11,442.498L374.11,496.826C374.11,511.56 363.294,523.549 349.997,523.549C336.696,523.549 325.884,511.561 325.884,496.826L325.884,442.498C325.884,427.764 336.7,415.775 349.997,415.775C363.298,415.775 374.11,427.763 374.11,442.498Z" style="fill-rule:nonzero;"/>
    </g>
</svg>
